<?xml version="1.0" encoding="UTF-8"?>
<svg width="24px" height="36px" viewBox="0 0 24 36" version="1.1" xmlns="http://www.w3.org/2000/svg" xmlns:xlink="http://www.w3.org/1999/xlink">
    <g stroke="none" stroke-width="1" fill="none" fill-rule="evenodd">
        <g transform="translate(-17.000000, -7.000000)">
            <g transform="translate(17.000000, 8.000000)">
                <path d="M23.5,9.5 C23.5,8.8 23.2,8.1 22.6,7.6 C22,7.1 21.2,6.8 20.4,6.8 L3.6,6.8 C2.8,6.8 2,7.1 1.4,7.6 C0.8,8.1 0.5,8.8 0.5,9.5 L0.5,10.2 C0.5,10.9 0.8,11.6 1.4,12.1 C2,12.6 2.8,12.9 3.6,12.9 L20.4,12.9 C21.2,12.9 22,12.6 22.6,12.1 C23.2,11.6 23.5,10.9 23.5,10.2 L23.5,9.5 Z" fill="#FFFFFF"></path>
                <path d="M20.4,4.5 L3.6,4.5 C2.8,4.5 2,4.2 1.4,3.7 C0.8,3.2 0.5,2.5 0.5,1.8 L0.5,1.1 C0.5,0.4 0.8,-0.3 1.4,-0.8 C2,-1.3 2.8,-1.6 3.6,-1.6 L20.4,-1.6 C21.2,-1.6 22,-1.3 22.6,-0.8 C23.2,-0.3 23.5,0.4 23.5,1.1 L23.5,1.8 C23.5,2.5 23.2,3.2 22.6,3.7 C22,4.2 21.2,4.5 20.4,4.5 Z" fill="#FFFFFF"></path>
                <path d="M3.1,15.2 C2.4,15.2 1.7,15.5 1.2,16 C0.7,16.5 0.4,17.2 0.4,17.9 L0.4,32.7 C0.4,33.4 0.7,34.1 1.2,34.6 C1.7,35.1 2.4,35.4 3.1,35.4 L20.9,35.4 C21.6,35.4 22.3,35.1 22.8,34.6 C23.3,34.1 23.6,33.4 23.6,32.7 L23.6,17.9 C23.6,17.2 23.3,16.5 22.8,16 C22.3,15.5 21.6,15.2 20.9,15.2 L3.1,15.2 Z" fill="#FFFFFF"></path>
            </g>
        </g>
    </g>
</svg> 